<?xml version="1.0" encoding="UTF-8"?>
<!-- Generator: visioncortex VTracer 0.6.3 -->
<svg version="1.1" xmlns="http://www.w3.org/2000/svg" width="520" height="321">
<path d="M0 0 C1.75 0.02 1.75 0.02 3.54 0.04 C6.92 0.1 10.28 0.22 13.66 0.37 C15.2 0.43 15.2 0.43 16.78 0.49 C23.79 0.95 23.79 0.95 27.14 3.85 C28.49 6.54 29.03 8.22 29.11 11.21 C29.14 12.05 29.17 12.89 29.21 13.76 C29.22 14.62 29.24 15.48 29.25 16.38 C29.28 17.26 29.31 18.14 29.34 19.05 C29.41 21.22 29.46 23.39 29.5 25.56 C30.37 24.47 30.37 24.47 31.26 23.36 C49.36 1.36 49.36 1.36 61.33 -0.03 C68.12 -0.2 74.81 0.4 81.5 1.56 C85.23 23.01 85.23 23.01 80.44 31.43 C74.3 40.05 65.72 47 57.5 53.56 C58.38 53.57 58.38 53.57 59.27 53.57 C61.93 53.61 64.59 53.68 67.25 53.75 C68.17 53.76 69.09 53.76 70.04 53.77 C70.93 53.8 71.82 53.83 72.73 53.86 C73.96 53.88 73.96 53.88 75.21 53.9 C78.75 54.92 79.67 56.38 81.5 59.56 C82.31 62.97 82.58 66.36 82.8 69.86 C82.87 70.87 82.94 71.88 83 72.92 C83.18 76.2 83.29 79.47 83.38 82.75 C83.41 83.86 83.44 84.96 83.47 86.1 C83.66 99.08 82.98 109.54 74.06 119.49 C68.48 125.18 62.29 130.38 55.5 134.56 C54.84 134.56 54.18 134.56 53.5 134.56 C53.5 133.96 53.5 133.35 53.5 132.72 C53.48 126.41 53.42 120.1 53.35 113.79 C53.32 111.44 53.31 109.08 53.3 106.72 C53.3 103.34 53.25 99.96 53.21 96.57 C53.21 95.52 53.21 94.46 53.22 93.37 C53.16 90.68 53.07 88.2 52.5 85.56 C48.22 81.65 42.51 80.96 36.88 80.59 C24.4 81.27 15.5 94.27 7.71 102.88 C6.97 103.73 6.97 103.73 6.21 104.6 C5.01 105.95 3.76 107.26 2.5 108.56 C1.84 108.56 1.18 108.56 0.5 108.56 C0.47 107.59 0.47 107.59 0.44 106.59 C0.34 103.64 0.24 100.7 0.12 97.75 C0.09 96.73 0.06 95.7 0.03 94.65 C-0.03 93.17 -0.03 93.17 -0.09 91.67 C-0.12 90.76 -0.15 89.86 -0.18 88.92 C-0.36 86.3 -0.36 86.3 -2.5 83.56 C-5.29 82.63 -7.27 82.38 -10.17 82.25 C-11.06 82.2 -11.95 82.16 -12.87 82.12 C-13.8 82.08 -14.73 82.04 -15.69 82 C-16.63 81.96 -17.57 81.91 -18.54 81.87 C-20.86 81.76 -23.18 81.66 -25.5 81.56 C-22.18 77.43 -18.83 73.9 -14.76 70.5 C-4.15 61.8 -4.15 61.8 0.81 49.54 C1.05 42.98 1.22 36.14 -2.5 30.56 C-5.34 29.62 -7.2 29.41 -10.16 29.36 C-11.1 29.34 -12.04 29.32 -13.01 29.3 C-14.02 29.28 -15.03 29.26 -16.07 29.25 C-17.11 29.23 -18.15 29.2 -19.22 29.18 C-22.54 29.12 -25.87 29.06 -29.19 29 C-31.44 28.96 -33.69 28.91 -35.94 28.87 C-41.46 28.76 -46.98 28.66 -52.5 28.56 C-52.1 28.12 -51.71 27.67 -51.3 27.21 C-48.3 23.78 -45.69 20.42 -43.33 16.5 C-31.75 0.06 -19.05 -0.28 0 0 Z M3.5 53.56 C3.5 53.89 3.5 54.22 3.5 54.56 C4.08 54.57 4.67 54.58 5.27 54.59 C7.93 54.64 10.59 54.73 13.25 54.81 C14.17 54.83 15.09 54.84 16.04 54.86 C19.86 54.99 22.71 55.13 26.09 56.97 C28.33 61.09 28.18 65.2 28.25 69.81 C28.28 70.75 28.31 71.68 28.34 72.65 C28.41 74.95 28.46 77.26 28.5 79.56 C30.12 78.17 31.73 76.78 33.35 75.39 C34.8 74.15 36.28 72.94 37.77 71.75 C49.38 62.59 49.38 62.59 54.84 49.41 C55.47 39.09 55.47 39.09 51.46 30.01 C45.04 26.87 38.62 25.96 31.57 27.32 C20.34 31.87 11.03 44.39 3.5 53.56 Z " fill="#FFFFFF" transform="translate(98.5,53.4375)"/>
<path d="M0 0 C1.83 1.2 3.39 2.58 4.93 4.12 C5.26 2.47 5.59 0.82 5.93 -0.88 C9.23 -0.88 12.53 -0.88 15.93 -0.88 C16.01 5.07 16.06 11.01 16.1 16.95 C16.11 18.96 16.13 20.98 16.16 23 C16.2 25.91 16.21 28.83 16.23 31.74 C16.24 32.63 16.26 33.52 16.27 34.44 C16.28 41.48 15.42 48.76 11.14 54.56 C3.89 60.36 -2.85 62.04 -12.07 61.12 C-18.31 59.79 -22.54 56.5 -27.07 52.12 C-25.59 47.7 -23.17 47.21 -19.07 45.12 C-18.41 45.12 -17.75 45.12 -17.07 45.12 C-16.39 45.93 -15.71 46.73 -15 47.56 C-11.17 50.9 -8.08 51.45 -3.07 51.12 C0.6 49.56 1.71 48.47 3.93 45.12 C4.38 43.08 4.38 43.08 4.56 40.94 C4.74 39.05 4.74 39.05 4.93 37.12 C4.21 37.74 3.49 38.36 2.75 39 C-1.71 42.36 -5.28 43.6 -10.95 43.44 C-16.05 42.68 -19.93 40.32 -23.44 36.62 C-27.93 29.72 -28.94 22.44 -27.38 14.31 C-25.61 7.82 -22.3 3.41 -16.48 0.04 C-11.31 -1.92 -5.14 -2.18 0 0 Z M-14.07 10.12 C-17.64 15 -17.94 20.29 -17.07 26.12 C-15.07 29.98 -13.67 31.72 -10.07 34.12 C-5.56 34.85 -2.07 34.73 1.87 32.38 C5.91 27.97 6.32 24.42 6.18 18.6 C5.84 15.17 4.92 12.93 2.93 10.12 C0.21 7.91 -1.52 7.19 -5 6.75 C-8.71 7.2 -10.96 8.05 -14.07 10.12 Z " fill="#FFFFFF" transform="translate(300.06640625,145.875)"/>
<path d="M0 0 C2.71 1.01 3.84 1.96 6 4 C6.88 6.25 6.88 6.25 7 8 C7.66 8 8.32 8 9 8 C9.21 7.42 9.41 6.84 9.62 6.25 C11.66 2.92 13.48 1.73 17 0 C22.32 -0.79 26.6 -0.65 31.5 1.62 C35.35 5.28 36.87 8.5 37.34 13.8 C37.34 15.21 37.32 16.62 37.29 18.02 C37.29 18.77 37.28 19.52 37.28 20.28 C37.26 22.65 37.23 25.01 37.19 27.38 C37.17 28.99 37.16 30.6 37.15 32.21 C37.11 36.14 37.06 40.07 37 44 C33.7 44 30.4 44 27 44 C26.97 43.11 26.95 42.22 26.92 41.31 C26.83 38.01 26.73 34.7 26.63 31.4 C26.58 29.97 26.54 28.55 26.5 27.12 C26.44 25.06 26.38 23.01 26.32 20.95 C26.26 19.1 26.26 19.1 26.21 17.21 C26.04 14.63 25.75 12.46 25 10 C21.07 9.13 18.56 8.82 14.69 10.06 C11.32 12.49 11.04 14.03 10 18 C9.64 21.09 9.64 21.09 9.59 24.27 C9.55 25.43 9.51 26.58 9.47 27.77 C9.44 28.96 9.41 30.15 9.38 31.38 C9.34 32.59 9.3 33.8 9.26 35.05 C9.16 38.03 9.08 41.02 9 44 C5.7 44 2.4 44 -1 44 C-1.01 43.15 -1.03 42.3 -1.04 41.42 C-1.11 38.24 -1.18 35.06 -1.26 31.88 C-1.3 30.51 -1.32 29.14 -1.35 27.77 C-1.38 25.79 -1.43 23.81 -1.49 21.83 C-1.51 20.64 -1.54 19.45 -1.57 18.23 C-2.04 14.72 -2.85 12.79 -5 10 C-8.58 8.76 -10.26 8.68 -13.75 10.19 C-16.18 12.14 -16.89 13.13 -18 16 C-18.37 19.1 -18.37 19.1 -18.41 22.52 C-18.47 24.39 -18.47 24.39 -18.53 26.3 C-18.58 28.26 -18.58 28.26 -18.62 30.25 C-18.66 31.57 -18.7 32.88 -18.74 34.24 C-18.84 37.49 -18.92 40.75 -19 44 C-22.3 44 -25.6 44 -29 44 C-29 29.81 -29 15.62 -29 1 C-25.7 1 -22.4 1 -19 1 C-18.67 2.32 -18.34 3.64 -18 5 C-17.22 4.36 -16.43 3.72 -15.62 3.06 C-10.69 -0.81 -6.13 -0.63 0 0 Z " fill="#FFFFFF" transform="translate(335,67)"/>
<path d="M0 0 C5.49 -0.06 10.97 -0.12 16.62 -0.19 C18.35 -0.21 20.07 -0.24 21.84 -0.27 C23.22 -0.28 24.6 -0.29 25.98 -0.29 C26.68 -0.31 27.38 -0.32 28.11 -0.34 C34.41 -0.34 38.25 1.37 42.81 5.62 C45.71 9.41 46.27 13.31 46 18 C44.34 23.86 41.84 26.6 37 30 C36.34 30 35.68 30 35 30 C35 30.66 35 31.32 35 32 C35.74 32.14 36.49 32.29 37.25 32.44 C43.27 35.86 44.61 44.55 46.48 50.84 C47 53 47 53 47 56 C43.37 56 39.74 56 36 56 C35.69 54.89 35.37 53.78 35.05 52.64 C34.62 51.18 34.18 49.71 33.75 48.25 C33.55 47.52 33.34 46.79 33.13 46.04 C31.86 41.81 30.86 38.49 27 36 C24.08 35.4 21.22 35.31 18.25 35.25 C15.53 35.17 12.81 35.09 10 35 C10 41.93 10 48.86 10 56 C6.7 56 3.4 56 0 56 C0 37.52 0 19.04 0 0 Z M10 9 C10 14.94 10 20.88 10 27 C12.68 27.06 15.36 27.12 18.12 27.19 C19.37 27.23 19.37 27.23 20.65 27.27 C25.52 27.32 28.76 26.66 33 24 C35.43 21.57 35.69 20.38 36 17 C34.94 12.97 33.52 11.17 30 9 C27.69 8.59 27.69 8.59 25.23 8.71 C24.34 8.72 23.46 8.73 22.54 8.74 C21.16 8.77 21.16 8.77 19.75 8.81 C18.35 8.83 18.35 8.83 16.91 8.85 C14.61 8.89 12.3 8.94 10 9 Z " fill="#FFFFFF" transform="translate(205,133)"/>
<path d="M0 0 C3.3 0 6.6 0 10 0 C10 7.59 10 15.18 10 23 C18.91 23 27.82 23 37 23 C37 15.41 37 7.82 37 0 C40.3 0 43.6 0 47 0 C47 18.48 47 36.96 47 56 C43.7 56 40.4 56 37 56 C37 48.08 37 40.16 37 32 C28.09 32 19.18 32 10 32 C10 39.92 10 47.84 10 56 C6.7 56 3.4 56 0 56 C0 37.52 0 19.04 0 0 Z " fill="#FFFFFF" transform="translate(205,55)"/>
<path d="M0 0 C3.3 0 6.6 0 10 0 C10.33 7.26 10.66 14.52 11 22 C13.97 19.53 13.97 19.53 17 17 C21.18 14.91 26.44 15.57 31 16 C35.54 18.15 37.85 20.48 40 25 C41.23 28.71 41.11 32.29 41.1 36.17 C41.1 36.85 41.09 37.54 41.09 38.24 C41.09 40.41 41.08 42.58 41.06 44.75 C41.06 46.23 41.05 47.7 41.05 49.18 C41.04 52.78 41.02 56.39 41 60 C37.7 60 34.4 60 31 60 C30.98 59.22 30.96 58.44 30.94 57.63 C30.84 54.07 30.73 50.5 30.62 46.94 C30.59 45.71 30.56 44.48 30.53 43.21 C30.34 37.16 30.09 31.71 28 26 C23.82 25.24 20.24 24.62 16.12 25.88 C10.18 31.82 10.49 41.17 10.31 49.06 C10.28 50.12 10.24 51.18 10.21 52.26 C10.13 54.84 10.06 57.42 10 60 C6.7 60 3.4 60 0 60 C0 40.2 0 20.4 0 0 Z " fill="#FFFFFF" transform="translate(322,129)"/>
<path d="M0 0 C4.43 3.64 5.88 6.77 6.81 12.31 C6.95 14 7.06 15.7 7.13 17.39 C7.17 18.33 7.21 19.26 7.26 20.22 C7.3 21.18 7.33 22.14 7.38 23.12 C7.42 24.1 7.46 25.08 7.51 26.09 C7.61 28.5 7.71 30.91 7.81 33.31 C10.78 33.81 10.78 33.81 13.81 34.31 C13.81 36.62 13.81 38.93 13.81 41.31 C9.84 43.3 5.12 43 0.81 42.31 C-1.64 40.52 -2.59 38.96 -4.19 36.31 C-5.03 37.1 -5.88 37.88 -6.75 38.69 C-11.36 42.48 -15.9 43.59 -21.81 43.12 C-26.31 42.47 -29.68 41.32 -32.5 37.56 C-33.79 33.34 -33.77 29.71 -32.06 25.62 C-27.31 19.76 -21.38 18.26 -14.31 16.56 C-13.43 16.34 -12.55 16.12 -11.65 15.89 C-9.5 15.36 -7.34 14.83 -5.19 14.31 C-4.86 12.33 -4.53 10.35 -4.19 8.31 C-8.86 6.82 -13.39 6.54 -17.94 8.5 C-20.44 10.52 -21.72 12.46 -23.19 15.31 C-26.16 14.32 -29.13 13.33 -32.19 12.31 C-30.33 6.9 -27.75 3 -22.81 0 C-16.11 -3.08 -6.62 -3.45 0 0 Z M-12.06 22.56 C-12.8 22.77 -13.53 22.97 -14.29 23.18 C-17.61 24.18 -19.72 24.84 -22.2 27.35 C-23.35 29.26 -23.35 29.26 -23.19 31.44 C-22.29 33.51 -22.29 33.51 -20 34.62 C-16.53 35.47 -14.61 35.36 -11.19 34.31 C-6.08 30.68 -6.08 30.68 -3.19 25.31 C-3.02 22.65 -3.02 22.65 -3.19 20.31 C-6.11 20.31 -9.26 21.73 -12.06 22.56 Z " fill="#FFFFFF" transform="translate(410.1875,68.6875)"/>
<path d="M0 0 C13.2 0 26.4 0 40 0 C40 3.3 40 6.6 40 10 C30.1 10 20.2 10 10 10 C10 15.28 10 20.56 10 26 C18.58 26 27.16 26 36 26 C36 28.64 36 31.28 36 34 C27.42 34 18.84 34 10 34 C10 41.26 10 48.52 10 56 C6.7 56 3.4 56 0 56 C0 37.52 0 19.04 0 0 Z " fill="#FFFFFF" transform="translate(205,210)"/>
<path d="M0 0 C2.62 2.25 2.62 2.25 4 4 C2.51 7.8 0.24 9.61 -3 12 C-4.46 10.73 -5.93 9.46 -7.39 8.19 C-10.13 6.16 -12.7 5.84 -16 5.81 C-17.02 5.79 -17.02 5.79 -18.06 5.77 C-20.33 5.89 -20.33 5.89 -23 8 C-22.67 9.32 -22.34 10.64 -22 12 C-21.15 12.18 -20.31 12.36 -19.44 12.55 C-0.8 16.68 -0.8 16.68 3 22 C4.4 26.6 4.03 29.67 2 34 C-1.8 38.52 -5.1 40.67 -10.98 41.34 C-18.35 41.43 -24.58 40.86 -31 37 C-33.62 34.25 -33.62 34.25 -35 32 C-32.69 29.69 -30.38 27.38 -28 25 C-26.76 25.99 -25.52 26.98 -24.25 28 C-18.63 31.82 -13.58 31.6 -7 31 C-7 29.02 -7 27.04 -7 25 C-7.58 24.87 -8.16 24.74 -8.76 24.6 C-11.4 24 -14.05 23.38 -16.69 22.75 C-17.6 22.55 -18.51 22.34 -19.45 22.13 C-24.51 20.92 -28.24 19.82 -32 16 C-33.76 12.47 -33.66 8.84 -33 5 C-30.88 1.1 -28.2 -1.36 -24.31 -3.44 C-15.44 -4.94 -7.98 -4.38 0 0 Z " fill="#FFFFFF" transform="translate(329,226)"/>
<path d="M0 0 C4 2 6.66 4.18 9 8 C10.19 11.57 10.12 14.8 10.1 18.51 C10.1 19.24 10.09 19.97 10.09 20.72 C10.09 23.04 10.08 25.36 10.06 27.69 C10.06 29.26 10.05 30.84 10.05 32.42 C10.04 36.28 10.02 40.14 10 44 C6.7 44 3.4 44 0 44 C-0.02 43.14 -0.04 42.28 -0.06 41.4 C-0.14 38.21 -0.22 35.02 -0.32 31.83 C-0.36 30.45 -0.39 29.07 -0.42 27.69 C-0.47 25.71 -0.53 23.72 -0.59 21.73 C-0.63 19.94 -0.63 19.94 -0.68 18.12 C-0.98 15.16 -1.36 13.44 -3 11 C-6.94 8.7 -9.65 8.96 -14 10 C-14.99 10.33 -15.98 10.66 -17 11 C-18.83 15.18 -19.28 18.97 -19.41 23.49 C-19.47 25.29 -19.47 25.29 -19.53 27.12 C-19.58 28.98 -19.58 28.98 -19.62 30.88 C-19.68 32.77 -19.68 32.77 -19.74 34.7 C-19.84 37.8 -19.92 40.9 -20 44 C-23.3 44 -26.6 44 -30 44 C-30 29.81 -30 15.62 -30 1 C-26.7 1 -23.4 1 -20 1 C-19.67 2.65 -19.34 4.3 -19 6 C-18.24 5.2 -17.47 4.39 -16.69 3.56 C-11.9 -1 -6.31 -0.66 0 0 Z " fill="#FFFFFF" transform="translate(458,67)"/>
<path d="M0 0 C1.4 1.16 2.72 2.42 4.03 3.69 C3.68 6.94 3.01 7.71 0.46 9.94 C-0.34 10.51 -1.14 11.09 -1.97 11.69 C-4.16 10.67 -5.88 9.77 -7.66 8.12 C-11.15 5.95 -14.9 5.72 -18.97 5.69 C-19.96 6.02 -20.95 6.35 -21.97 6.69 C-22.3 8.67 -22.63 10.65 -22.97 12.69 C-21.84 12.86 -20.7 13.03 -19.54 13.2 C-3.95 15.66 -3.95 15.66 2.03 19.69 C4.41 23.39 4.22 26.19 3.64 30.43 C2.49 34.66 -0.02 37.37 -3.66 39.82 C-6.96 41.06 -10.18 41.07 -13.66 41.06 C-14.37 41.06 -15.09 41.06 -15.82 41.06 C-22.33 40.91 -27.71 39.54 -32.71 35.17 C-33.97 33.69 -33.97 33.69 -33.91 31.75 C-32.68 29.04 -31.33 27.51 -28.97 25.69 C-26 25.69 -24.97 26.69 -22.79 28.69 C-19.06 31.34 -15.52 31.93 -10.97 31.69 C-8.71 31.13 -8.71 31.13 -6.97 29.69 C-6.16 27.13 -6.16 27.13 -5.97 24.69 C-6.8 24.53 -6.8 24.53 -7.64 24.37 C-10.15 23.88 -12.65 23.38 -15.16 22.88 C-16.02 22.71 -16.89 22.54 -17.78 22.37 C-23.33 21.25 -27.55 19.94 -31.79 16 C-33.54 12.58 -33.62 9.4 -32.97 5.69 C-30.72 1.27 -28.47 -1.23 -23.97 -3.31 C-16.07 -5.6 -6.92 -4.61 0 0 Z " fill="#FFFFFF" transform="translate(432.97265625,148.3125)"/>
<path d="M0 0 C3.3 0 6.6 0 10 0 C10 0.85 10.01 1.7 10.01 2.58 C10.04 5.76 10.09 8.94 10.15 12.12 C10.18 13.49 10.19 14.86 10.2 16.23 C10.2 18.21 10.25 20.19 10.29 22.17 C10.32 23.95 10.32 23.95 10.34 25.77 C11.18 29.9 12.75 31.4 16 34 C19 34.83 19 34.83 22 34 C25.1 31.45 26.73 29.82 28 26 C28.15 24.01 28.25 22.01 28.32 20.02 C28.36 18.86 28.4 17.69 28.44 16.49 C28.48 15.28 28.52 14.06 28.56 12.81 C28.61 11.59 28.65 10.36 28.69 9.1 C28.8 6.06 28.9 3.03 29 0 C32.3 0 35.6 0 39 0 C39 14.19 39 28.38 39 43 C35.7 43 32.4 43 29 43 C28.5 40.53 28.5 40.53 28 38 C27.2 38.8 26.39 39.61 25.56 40.44 C21.67 43.65 17.98 44.29 13 44 C8.56 43.11 5.74 41.75 2.56 38.5 C-0.14 34.17 -0.13 30.43 -0.1 25.49 C-0.1 24.76 -0.09 24.03 -0.09 23.28 C-0.09 20.96 -0.08 18.64 -0.06 16.31 C-0.06 14.74 -0.05 13.16 -0.05 11.58 C-0.04 7.72 -0.02 3.86 0 0 Z " fill="#FFFFFF" transform="translate(259,68)"/>
<path d="M0 0 C0 5.28 0 10.56 0 16 C3.96 16 7.92 16 12 16 C12 18.97 12 21.94 12 25 C8.04 25 4.08 25 0 25 C0.11 28.79 0.24 32.58 0.38 36.38 C0.41 37.46 0.44 38.54 0.47 39.65 C0.51 40.68 0.55 41.71 0.59 42.77 C0.63 44.2 0.63 44.2 0.68 45.66 C0.79 48.19 0.79 48.19 3 50 C5.21 50.24 5.21 50.24 7.62 50.12 C8.44 50.11 9.26 50.09 10.1 50.07 C10.73 50.05 11.35 50.02 12 50 C12 52.64 12 55.28 12 58 C7.63 60.48 3.92 60.52 -1 60 C-4.38 59 -4.38 59 -7 57 C-10.38 50.16 -10.36 44.03 -10.19 36.5 C-10.17 35.39 -10.16 34.28 -10.15 33.14 C-10.11 30.43 -10.06 27.71 -10 25 C-12.97 25 -15.94 25 -19 25 C-19 22.03 -19 19.06 -19 16 C-16.03 16 -13.06 16 -10 16 C-10.09 15.26 -10.19 14.53 -10.28 13.77 C-10.51 10.68 -10.57 8.05 -10 5 C-7.34 2.13 -3.99 0 0 0 Z " fill="#FFFFFF" transform="translate(355,207)"/>
<path d="M0 0 C0 5.28 0 10.56 0 16 C3.96 16 7.92 16 12 16 C12 18.97 12 21.94 12 25 C8.04 25 4.08 25 0 25 C0.11 28.42 0.24 31.83 0.38 35.25 C0.41 36.22 0.44 37.19 0.47 38.18 C0.51 39.12 0.55 40.05 0.59 41.02 C0.63 42.3 0.63 42.3 0.68 43.62 C0.92 46.38 0.92 46.38 3 50 C5.97 50 8.94 50 12 50 C12 52.97 12 55.94 12 59 C7.8 61.1 2.56 60.54 -2 60 C-4.8 58.64 -5.92 57.42 -8 55 C-9.1 51.7 -9.11 49.27 -9.1 45.8 C-9.09 44.59 -9.09 43.38 -9.09 42.14 C-9.08 40.88 -9.07 39.61 -9.06 38.31 C-9.06 37.04 -9.05 35.76 -9.05 34.45 C-9.04 31.3 -9.02 28.15 -9 25 C-12.3 25 -15.6 25 -19 25 C-19 22.03 -19 19.06 -19 16 C-15.7 16 -12.4 16 -9 16 C-9.09 15.26 -9.19 14.53 -9.28 13.77 C-9.51 10.68 -9.58 8.05 -9 5 C-6.79 2.67 -3.4 0 0 0 Z " fill="#FFFFFF" transform="translate(383,129)"/>
<path d="M0 0 C1.47 3.81 0.43 6.29 -1 10 C-1.75 9.95 -2.5 9.91 -3.27 9.86 C-9.27 9.48 -9.27 9.48 -14.62 11.75 C-17.01 15.66 -17.15 19.33 -17.32 23.86 C-17.36 24.97 -17.4 26.09 -17.44 27.24 C-17.5 28.98 -17.5 28.98 -17.56 30.75 C-17.61 31.92 -17.65 33.1 -17.69 34.31 C-17.8 37.21 -17.9 40.1 -18 43 C-21.3 43 -24.6 43 -28 43 C-28 28.81 -28 14.62 -28 0 C-24.7 0 -21.4 0 -18 0 C-17.67 1.65 -17.34 3.3 -17 5 C-16.26 4.2 -15.51 3.39 -14.75 2.56 C-9.84 -2.01 -6.31 -0.95 0 0 Z " fill="#FFFFFF" transform="translate(294,223)"/>
<path d="M0 0 C3.3 0 6.6 0 10 0 C10 14.52 10 29.04 10 44 C6.7 44 3.4 44 0 44 C0 29.48 0 14.96 0 0 Z " fill="#FFFFFF" transform="translate(257,145)"/>
<path d="M0 0 C3.3 0 6.6 0 10 0 C10 14.19 10 28.38 10 43 C6.7 43 3.4 43 0 43 C0 28.81 0 14.62 0 0 Z " fill="#FFFFFF" transform="translate(249,223)"/>
<path d="M0 0 C3.38 0.94 3.38 0.94 5.38 3.94 C5.7 7.03 5.86 9.08 4.31 11.81 C1.27 13.58 -1.19 13.31 -4.62 12.94 C-6.56 11.81 -6.56 11.81 -7.62 9.94 C-8.16 6.32 -8.05 4.6 -6.06 1.5 C-3.62 -0.06 -3.62 -0.06 0 0 Z " fill="#FFFFFF" transform="translate(255.625,205.0625)"/>
<path d="M0 0 C6.84 -0.65 6.84 -0.65 10 1.12 C11.48 3.9 11.39 5.91 11 9 C10 10.88 10 10.88 8 12 C5.15 12.42 2.93 12.28 0 12 C-2.31 8.53 -2.34 7.07 -2 3 C-1.34 2.01 -0.68 1.02 0 0 Z " fill="#FFFFFF" transform="translate(258,128)"/>
</svg>
